<svg width="31" height="31" viewBox="0 0 31 31" fill="none" xmlns="http://www.w3.org/2000/svg">
<g clip-path="url(#clip0_4_17)">
<path d="M15.8391 30.2741C24.1233 30.2741 30.8391 23.5584 30.8391 15.2741C30.8391 6.98984 24.1233 0.274109 15.8391 0.274109C7.55478 0.274109 0.83905 6.98984 0.83905 15.2741C0.83905 23.5584 7.55478 30.2741 15.8391 30.2741Z" fill="url(#paint0_linear_4_17)"/>
<rect x="1.5" y="0.5" width="29" height="29" rx="14.5" fill="white" stroke="black"/>
<path d="M20.7746 9.27411H11.6535C10.6237 9.27411 9.83905 10.0588 9.83905 11.0885V20.2097C9.83905 21.2395 10.6237 22.0241 11.6535 22.0241H20.7746C21.8044 22.0241 22.5891 21.2395 22.5891 20.2097V11.0885C22.5891 10.0588 21.8044 9.27411 20.7746 9.27411ZM16.2141 19.4741C18.3227 19.4741 20.0391 17.8068 20.0391 15.7963C20.0391 15.453 19.99 15.0607 19.8919 14.7664H20.9708V19.9645C20.9708 20.2097 20.7746 20.4549 20.4804 20.4549H11.9477C11.7025 20.4549 11.4573 20.2588 11.4573 19.9645V14.7174H12.5852C12.4872 15.0607 12.4381 15.4039 12.4381 15.7472C12.3891 17.8068 14.1054 19.4741 16.2141 19.4741ZM16.2141 18.003C14.841 18.003 13.7622 16.9241 13.7622 15.6001C13.7622 14.276 14.841 13.1972 16.2141 13.1972C17.5872 13.1972 18.6659 14.276 18.6659 15.6001C18.6659 16.9732 17.5872 18.003 16.2141 18.003ZM20.9217 12.7558C20.9217 13.0501 20.6765 13.2952 20.3823 13.2952H19.0092C18.715 13.2952 18.4698 13.0501 18.4698 12.7558V11.4318C18.4698 11.1376 18.715 10.8924 19.0092 10.8924H20.3823C20.6765 10.8924 20.9217 11.1376 20.9217 11.4318V12.7558Z" fill="black"/>
</g>
<defs>
<linearGradient id="paint0_linear_4_17" x1="7.21405" y1="26.8991" x2="27.089" y2="6.27411" gradientUnits="userSpaceOnUse">
<stop stop-color="#EEA054"/>
<stop offset="0.502762" stop-color="#D64763"/>
<stop offset="1" stop-color="#B62A99"/>
</linearGradient>
<clipPath id="clip0_4_17">
<rect width="30" height="30" fill="white" transform="translate(0.83905 0.274109)"/>
</clipPath>
</defs>
</svg>
