<svg width="31" height="31" viewBox="0 0 31 31" fill="none" xmlns="http://www.w3.org/2000/svg">
<g clip-path="url(#clip0_4_20)">
<path d="M15.7578 30.2741C24.0421 30.2741 30.7578 23.5584 30.7578 15.2741C30.7578 6.98984 24.0421 0.274109 15.7578 0.274109C7.47356 0.274109 0.757835 6.98984 0.757835 15.2741C0.757835 23.5584 7.47356 30.2741 15.7578 30.2741Z" fill="#00A9E7"/>
<rect x="1.49999" y="0.5" width="29" height="29" rx="14.5" fill="white" stroke="black"/>
<path d="M23.4965 16.0753C23.5476 15.6661 23.5987 15.3082 23.5987 14.8991C23.5987 10.8082 20.2749 7.4332 16.1328 7.4332C15.7237 7.4332 15.3658 7.48434 14.9567 7.53547C14.292 7.17752 13.576 7.02411 12.8601 7.02411C10.3033 7.02411 8.25784 9.06958 8.25784 11.6264C8.25784 12.3423 8.41121 13.0582 8.76919 13.723C8.71804 14.1321 8.66696 14.49 8.66696 14.8991C8.66696 18.99 11.9908 22.365 16.1328 22.365C16.542 22.365 16.8999 22.3139 17.309 22.2628C17.9737 22.5696 18.6897 22.7741 19.4055 22.7741C21.9624 22.7741 24.0078 20.7286 24.0078 18.1718C24.0078 17.4559 23.8033 16.74 23.4965 16.0753ZM19.2522 17.6093C19.0987 17.9161 18.8942 18.1718 18.5874 18.3764C18.2805 18.5809 17.9737 18.7343 17.5647 18.8366C17.1555 18.9389 16.6953 18.99 16.184 18.99C15.1101 18.99 14.2408 18.7343 13.6272 18.2741C13.2692 17.9673 12.9624 17.6093 12.809 17.1491C12.6045 16.74 12.9624 16.2286 13.4737 16.2286H13.6272C13.934 16.2286 14.2408 16.4332 14.343 16.6889C14.4453 16.9446 14.5987 17.1491 14.8033 17.3025C15.1101 17.5582 15.5703 17.6605 16.1328 17.6605C16.6442 17.6605 17.0533 17.5582 17.3601 17.4048C17.667 17.2514 17.8203 16.9446 17.8203 16.6378C17.8203 16.4843 17.7692 16.3821 17.718 16.2798C17.667 16.1775 17.5135 16.0753 17.4112 16.0241C17.2578 15.9218 17.1045 15.8707 16.8487 15.8196C16.6442 15.7684 16.3885 15.6661 16.0817 15.615L15.7749 15.5128C15.417 15.4105 15.0078 15.3082 14.701 15.2059C14.343 15.1036 14.0362 14.9503 13.7805 14.7968C13.5249 14.6434 13.3203 14.4389 13.167 14.1321C13.0135 13.8764 12.9624 13.5184 12.9624 13.1093C12.9624 12.7003 13.0647 12.3423 13.218 12.0355C13.3715 11.7286 13.6272 11.473 13.8828 11.3196C14.1897 11.115 14.4965 10.9616 14.9055 10.9105C15.2635 10.8082 15.6726 10.7571 16.1328 10.7571C16.6442 10.7571 17.0533 10.8082 17.4624 10.9105C17.8715 11.0128 18.1783 11.1661 18.4851 11.4218C18.792 11.6264 18.9965 11.8821 19.1499 12.24C19.4055 12.7003 19.0476 13.3139 18.4851 13.3139H18.3317C18.0249 13.3139 17.7692 13.1605 17.6158 12.9048C17.5135 12.7514 17.4112 12.598 17.2578 12.4446C17.0022 12.24 16.593 12.1378 16.1328 12.1378C15.6726 12.1378 15.3147 12.24 15.059 12.3934C14.8033 12.5468 14.701 12.8025 14.701 13.0582C14.701 13.2116 14.7522 13.3139 14.8033 13.4161C14.8545 13.5184 14.9567 13.6207 15.1101 13.6718C15.2635 13.723 15.417 13.8253 15.6215 13.8764C15.826 13.9275 16.0817 13.9786 16.3885 14.0809C16.6953 14.1321 16.951 14.2343 17.2578 14.2855C17.5135 14.3366 17.7692 14.4389 18.0249 14.49C18.2805 14.5923 18.4851 14.6946 18.6897 14.7968C18.8942 14.8991 19.0476 15.0525 19.201 15.2059C19.3545 15.3593 19.4567 15.5639 19.5078 15.7684C19.6101 15.973 19.6101 16.2798 19.6101 16.5866C19.5078 16.9446 19.4055 17.3025 19.2522 17.6093Z" fill="black"/>
</g>
<defs>
<clipPath id="clip0_4_20">
<rect width="30" height="30" fill="white" transform="translate(0.757835 0.274109)"/>
</clipPath>
</defs>
</svg>
