<svg width="31" height="31" viewBox="0 0 31 31" fill="none" xmlns="http://www.w3.org/2000/svg">
<g clip-path="url(#clip0_4_23)">
<path d="M15.6838 30.2741C23.968 30.2741 30.6838 23.5584 30.6838 15.2741C30.6838 6.98984 23.968 0.274109 15.6838 0.274109C7.39949 0.274109 0.683762 6.98984 0.683762 15.2741C0.683762 23.5584 7.39949 30.2741 15.6838 30.2741Z" fill="#2F89CE"/>
<rect x="1.5" y="0.5" width="29" height="29" rx="14.5" fill="white" stroke="black"/>
<path d="M7.69679 15.5547L11.1454 16.8406L12.4897 21.1659C12.5482 21.4582 12.8989 21.5166 13.1326 21.3412L15.0615 19.7631C15.2368 19.5877 15.5291 19.5877 15.7629 19.7631L19.2115 22.2764C19.4453 22.4518 19.796 22.3349 19.8544 22.0426L22.4263 9.76813C22.4847 9.47586 22.1924 9.18358 21.9002 9.30051L7.69679 14.7948C7.34609 14.9117 7.34609 15.4378 7.69679 15.5547ZM12.3144 16.1976L19.0945 12.0477C19.2115 11.9892 19.3284 12.1645 19.2115 12.223L13.6587 17.4251C13.4833 17.6005 13.308 17.8342 13.308 18.1265L13.1326 19.5293C13.1326 19.7047 12.8404 19.7631 12.7819 19.5293L12.0805 16.9575C11.9052 16.6652 12.0221 16.3145 12.3144 16.1976Z" fill="black"/>
</g>
<defs>
<clipPath id="clip0_4_23">
<rect width="30" height="30" fill="white" transform="translate(0.683762 0.274109)"/>
</clipPath>
</defs>
</svg>
