<svg width="31" height="31" viewBox="0 0 31 31" fill="none" xmlns="http://www.w3.org/2000/svg">
<g clip-path="url(#clip0_4_26)">
<path d="M15.6026 30.2817C23.8868 30.2817 30.6026 23.566 30.6026 15.2817C30.6026 6.99747 23.8868 0.281738 15.6026 0.281738C7.3183 0.281738 0.60257 6.99747 0.60257 15.2817C0.60257 23.566 7.3183 30.2817 15.6026 30.2817Z" fill="#7294C7"/>
<path d="M1.5 15C1.5 6.99187 7.99187 0.5 16 0.5C24.0081 0.5 30.5 6.99187 30.5 15C30.5 23.0081 24.0081 29.5 16 29.5C7.99187 29.5 1.5 23.0081 1.5 15Z" fill="white" stroke="black"/>
<path d="M22.9571 19.1182C22.9571 19.0559 22.8949 19.0559 22.8949 18.9936C22.6458 18.4955 22.0854 17.8728 21.3382 17.1879C20.9646 16.8765 20.7778 16.6274 20.6533 16.5029C20.4665 16.2539 20.4665 16.067 20.5288 15.818C20.591 15.6312 20.8401 15.3199 21.2759 14.7594C21.525 14.4481 21.6495 14.2613 21.8363 14.0745C22.7704 12.8291 23.2062 12.0197 23.0817 11.6461L23.0195 11.5838C22.9571 11.5216 22.8949 11.4593 22.7704 11.4593C22.6458 11.397 22.4591 11.397 22.2722 11.4593H19.9061C19.8438 11.4593 19.8438 11.4593 19.7192 11.4593C19.657 11.4593 19.5947 11.4593 19.5947 11.4593H19.5325H19.4702L19.4079 11.5216C19.3457 11.5838 19.3457 11.5838 19.3457 11.6461C19.0966 12.3311 18.7853 12.8915 18.4739 13.5141C18.2871 13.8254 18.1003 14.1368 17.9135 14.3858C17.7267 14.6349 17.6022 14.8217 17.4776 14.9462C17.3531 15.0708 17.2286 15.1331 17.1663 15.2576C17.1041 15.3199 16.9795 15.3821 16.9795 15.3199C16.9172 15.3199 16.855 15.3199 16.855 15.2576C16.7927 15.1953 16.7304 15.1331 16.6682 15.0708C16.6059 15.0085 16.6059 14.884 16.5437 14.7594C16.5437 14.6349 16.5437 14.5104 16.5437 14.4481C16.5437 14.3858 16.5437 14.199 16.5437 14.0745C16.5437 13.8877 16.5437 13.7632 16.5437 13.7009C16.5437 13.5141 16.5437 13.265 16.5437 13.016C16.5437 12.7669 16.5437 12.5801 16.5437 12.4556C16.5437 12.3311 16.5437 12.1442 16.5437 12.0197C16.5437 11.8329 16.5437 11.7083 16.5437 11.6461C16.5437 11.5838 16.4814 11.4593 16.4814 11.397C16.4191 11.3348 16.3568 11.2725 16.2946 11.2102C16.2323 11.1479 16.1078 11.1479 16.0455 11.0857C15.7342 11.0234 15.3605 10.9612 14.9247 10.9612C13.9284 10.9612 13.2435 11.0234 12.9944 11.1479C12.8699 11.2103 12.7454 11.2725 12.6831 11.397C12.5585 11.5216 12.5585 11.5838 12.6208 11.5838C12.9321 11.6461 13.1812 11.7706 13.3058 11.9574L13.368 12.082C13.4303 12.1442 13.4303 12.2687 13.4925 12.4556C13.5548 12.6424 13.5548 12.8291 13.5548 13.0782C13.5548 13.4519 13.5548 13.8254 13.5548 14.0745C13.5548 14.3858 13.4925 14.5727 13.4925 14.7594C13.4925 14.9462 13.4303 15.0708 13.368 15.1331C13.3058 15.2576 13.3058 15.3199 13.2435 15.3199C13.2435 15.3199 13.2435 15.3821 13.1812 15.3821C13.1189 15.3821 13.0567 15.4444 12.9321 15.4444C12.8699 15.4444 12.7454 15.3821 12.6831 15.3199C12.5585 15.2576 12.434 15.1331 12.3717 15.0085C12.2472 14.884 12.1226 14.6972 11.9981 14.4481C11.8736 14.199 11.6868 13.95 11.5622 13.5764L11.4377 13.3273C11.3755 13.2028 11.2509 12.9537 11.1264 12.6424C11.0018 12.3311 10.8773 12.082 10.7528 11.7707C10.6905 11.6461 10.6283 11.5838 10.566 11.5216H10.5038C10.5038 11.5216 10.4414 11.4593 10.3792 11.4593C10.3169 11.4593 10.2547 11.397 10.1924 11.397H7.95078C7.70171 11.397 7.57717 11.4593 7.51491 11.5216L7.45264 11.5838C7.45264 11.5838 7.45264 11.6461 7.45264 11.7083C7.45264 11.7707 7.45264 11.8329 7.51491 11.9574C7.82625 12.7046 8.19985 13.4519 8.57342 14.199C8.94707 14.884 9.32065 15.5066 9.56972 15.9425C9.88105 16.3784 10.1301 16.8143 10.4414 17.1879C10.7528 17.5615 10.9396 17.8106 11.0018 17.9351C11.1264 18.0596 11.1887 18.1219 11.2509 18.1841L11.4377 18.371C11.5622 18.4955 11.7491 18.6823 11.9981 18.8691C12.2472 19.0559 12.5585 19.2427 12.8699 19.4295C13.1812 19.6163 13.5548 19.7408 13.9284 19.8653C14.3643 19.9899 14.7379 20.0522 15.1115 19.9899H16.0455C16.2323 19.9899 16.3568 19.9277 16.4814 19.8031L16.5437 19.7408C16.5437 19.6786 16.6059 19.6786 16.6059 19.6163C16.6059 19.554 16.6059 19.4918 16.6059 19.3673C16.6059 19.1182 16.6059 18.9314 16.6682 18.7445C16.7304 18.5578 16.7305 18.4332 16.7927 18.3087C16.855 18.1841 16.9172 18.1219 16.9795 18.0596C17.0418 17.9973 17.1041 17.9351 17.1041 17.9351H17.1663C17.2908 17.8728 17.4776 17.9351 17.6022 18.0596C17.789 18.1841 17.9758 18.371 18.1003 18.5578C18.2249 18.7445 18.4117 18.9314 18.6608 19.1804C18.9098 19.4295 19.0966 19.6163 19.2212 19.6786L19.4079 19.8031C19.5325 19.8653 19.657 19.9277 19.8438 19.9899C20.0306 20.0522 20.1551 20.0522 20.2796 20.0522L22.3967 19.9899C22.5836 19.9899 22.7704 19.9277 22.8949 19.8653C23.0195 19.8031 23.0817 19.7408 23.0817 19.6163C23.0817 19.554 23.0817 19.4295 23.0817 19.3673C22.9571 19.2427 22.9571 19.1804 22.9571 19.1182Z" fill="black"/>
</g>
<defs>
<clipPath id="clip0_4_26">
<rect width="30" height="30" fill="white" transform="translate(0.60257 0.281738)"/>
</clipPath>
</defs>
</svg>
